<svg xmlns="http://www.w3.org/2000/svg" viewBox="0 0 1024 576"><defs><linearGradient id="b"><stop stop-color="#061514"/><stop offset="1" stop-color="#18294a"/></linearGradient><linearGradient id="a"><stop stop-color="#2cffb2"/><stop offset="1" stop-color="#00d4ff"/></linearGradient><filter id="g"><feGaussianBlur stdDeviation="17"/></filter><marker id="m" markerWidth="9" markerHeight="9" refX="7" refY="3" orient="auto"><path d="M0 0l8 3-8 3z" fill="#73ffd4"/></marker></defs><rect width="1024" height="576" fill="url(#b)"/><ellipse cx="510" cy="300" rx="350" ry="195" fill="#00e5a8" opacity=".16" filter="url(#g)"/><path d="M155 320h145M380 320h145M605 320h145" fill="none" stroke="#73ffd4" stroke-width="5" marker-end="url(#m)"/><g font-family="Arial" text-anchor="middle"><g fill="#0a2524" stroke="#59f4c5" stroke-width="3"><rect x="70" y="255" width="175" height="138" rx="20"/><rect x="300" y="255" width="175" height="138" rx="20"/><rect x="530" y="255" width="175" height="138" rx="20"/><rect x="760" y="255" width="195" height="138" rx="20"/></g><g fill="#8bffe0" font-size="15" font-weight="700"><text x="157" y="294">SIGNAL</text><text x="387" y="294">NORMALIZE</text><text x="617" y="294">EVADE</text><text x="857" y="294">ALERT</text></g><g fill="#e0fff5" font-size="12"><text x="157" y="328">raw event</text><text x="387" y="328">canonicalize</text><text x="617" y="328">shadow path</text><text x="857" y="328">fatigue gap</text></g></g><path d="M102 178C285 78 739 78 922 178" fill="none" stroke="url(#a)" stroke-width="7" stroke-dasharray="10 9"/><text x="512" y="105" fill="#fff" font-family="Arial" font-size="28" font-weight="700" text-anchor="middle">DETECTION EVASION FLOW</text><text x="512" y="143" fill="#b2d5d1" font-family="Arial" font-size="15" text-anchor="middle">Demonstrate how normalization gaps and alert fatigue hide a hostile signal</text></svg>